# xmcd
#
# Track frame offsets:
# 183
# 45155
# 57095
# 68715
# 105290
# 124333
# 156958
# 195700
# 218228
# 256145
# 308220
# 318325
#
# Disc length: 4476 seconds
#
#
# Revision: 0
# Processed by: cddbd v1.5.2PL0 Copyright (c) Steve Scherf et al.
# Submitted via: FreeRIP 2.945 
#
DISCID=9e117a0c
DTITLE=Carlos Santana - Hot Tamales
DYEAR=1969
DGENRE=Pop/Funk
TTITLE0=Jingo
TTITLE1=Acapulco Sunrise
TTITLE2=Coconut Grove
TTITLE3=Hot Tamales
TTITLE4=With a little help from my Friends
TTITLE5=Everyday i have the Blues
TTITLE6=Jam in E
TTITLE7=Travellin' Home
TTITLE8=Jammin' Home
TTITLE9=Latin Tropical
TTITLE10=Let's get ourselves together
TTITLE11=As the Years go by
EXTD=
EXTT0=
EXTT1=
EXTT2=
EXTT3=
EXTT4=
EXTT5=
EXTT6=
EXTT7=
EXTT8=
EXTT9=
EXTT10=
EXTT11=
PLAYORDER=
